<?xml version="1.0" encoding="UTF-8" standalone="no"?>
<svg
   enable-background="new 0 0 24 24"
   height="24px"
   viewBox="0 0 24 24"
   width="24px"
   fill="#5f6368"
   version="1.1"
   id="svg226"
   sodipodi:docname="cargo_bike.svg"
   inkscape:version="1.2.2 (b0a8486541, 2022-12-01)"
   xmlns:inkscape="http://www.inkscape.org/namespaces/inkscape"
   xmlns:sodipodi="http://sodipodi.sourceforge.net/DTD/sodipodi-0.dtd"
   xmlns="http://www.w3.org/2000/svg"
   xmlns:svg="http://www.w3.org/2000/svg">
  <defs
     id="defs230" />
  <sodipodi:namedview
     id="namedview228"
     pagecolor="#ffffff"
     bordercolor="#000000"
     borderopacity="0.25"
     inkscape:showpageshadow="2"
     inkscape:pageopacity="0.0"
     inkscape:pagecheckerboard="0"
     inkscape:deskcolor="#d1d1d1"
     showgrid="false"
     showguides="true"
     inkscape:zoom="52.013166"
     inkscape:cx="14.121425"
     inkscape:cy="11.89122"
     inkscape:window-width="1876"
     inkscape:window-height="1131"
     inkscape:window-x="0"
     inkscape:window-y="0"
     inkscape:window-maximized="1"
     inkscape:current-layer="g224" />
  <g
     id="g220">
    <rect
       fill="none"
       height="24"
       width="24"
       id="rect218" />
  </g>
  <g
     id="g224">
    <path
       d="m 13.662782,10.460716 -1.275,-3.5099997 c -0.2175,-0.5925 -0.78,-0.99 -1.41,-0.99 H 9.0277817 v 1.5 h 1.9500003 l 1.095,2.9999997 H 8.4652817 l -0.27,-0.7499997 h 0.8325 v -1.5 h -3.75 v 1.5 h 1.3125 l 1.365,3.7499997 h -0.5025 c -0.33,-1.6725 -1.7325,-2.91 -3.4875,-2.9925 -2.1,-0.105 -3.93749999,1.6425 -3.93749999,3.7425 0,2.1 1.64999999,3.75 3.74999999,3.75 1.845,0 3.3375,-1.2675 3.675,-3 h 7.1500003 c 0.33,1.6725 1.7325,2.91 3.4875,2.9925 2.1,0.0975 3.9375,-1.6425 3.9375,-3.75 0,-2.1 -1.65,-3.75 -3.75,-3.75 h -4.615 z m -7.7700003,4.5 c -0.3,0.8775 -1.1175,1.5 -2.115,1.5 -1.26,0 -2.25,-0.99 -2.25,-2.25 0,-1.26 0.99,-2.25 2.25,-2.25 0.9975,0 1.815,0.6225 2.115,1.5 h -2.115 v 1.5 z m 8.7100003,-1.5 H 9.5527817 l -0.5475,-1.5 h 6.2725003 c -0.33,0.435 -0.57,0.9375 -0.675,1.5 z m 3.675,3 c -1.061545,-8.83e-4 -2.25,-0.99 -2.25,-2.25 0,-0.6975 0.3075,-1.2975 0.7875,-1.71 l -3.28,1.98 1.41,-0.51 -0.7275,-2.0025 c 0.0225,0 3.556385,-0.186788 4.0675,-0.0075 0.511115,0.179288 2.250883,1.188455 2.25,2.25 -8.83e-4,1.061545 -1.195955,2.250883 -2.2575,2.25 z"
       id="path222"
       style="fill:#000000;fill-opacity:1"
       sodipodi:nodetypes="ccsccccccccccccccsscccsscccsssccccccccczsccccczz" />
    <path
       style="fill:#000000;fill-opacity:1"
       d="m 13.3587,14.896641 c -0.0059,-0.0172 -0.166614,-0.574073 -0.3571,-1.237496 -0.190486,-0.663423 -0.476353,-1.658578 -0.63526,-2.211455 -0.158906,-0.552879 -0.288921,-1.014474 -0.288921,-1.02577 0,-0.01544 1.475759,-0.01815 5.952007,-0.0109 3.273603,0.0053 5.956201,0.01341 5.96133,0.01804 0.0077,0.007 -1.277389,4.257051 -1.342759,4.440782 l -0.02066,0.05808 h -4.628936 c -4.391186,0 -4.629487,-0.0016 -4.639696,-0.03127 z"
       id="path1433" />
  </g>
</svg>
