<?xml version="1.0" encoding="UTF-8" standalone="no"?>
<svg
   class="MuiSvgIcon-root MuiSvgIcon-fontSizeMedium css-1phnduy"
   focusable="false"
   aria-hidden="true"
   viewBox="0 0 24 24"
   version="1.1"
   id="svg620"
   sodipodi:docname="carpool.svg"
   inkscape:version="1.2.2 (b0a8486541, 2022-12-01)"
   xmlns:inkscape="http://www.inkscape.org/namespaces/inkscape"
   xmlns:sodipodi="http://sodipodi.sourceforge.net/DTD/sodipodi-0.dtd"
   xmlns="http://www.w3.org/2000/svg"
   xmlns:svg="http://www.w3.org/2000/svg">
  <defs
     id="defs624" />
  <sodipodi:namedview
     id="namedview622"
     pagecolor="#ffffff"
     bordercolor="#000000"
     borderopacity="0.25"
     inkscape:showpageshadow="2"
     inkscape:pageopacity="0.0"
     inkscape:pagecheckerboard="0"
     inkscape:deskcolor="#d1d1d1"
     showgrid="false"
     showguides="true"
     inkscape:zoom="55.1875"
     inkscape:cx="12.01359"
     inkscape:cy="13.019253"
     inkscape:window-width="1876"
     inkscape:window-height="1131"
     inkscape:window-x="0"
     inkscape:window-y="0"
     inkscape:window-maximized="1"
     inkscape:current-layer="svg620">
    <sodipodi:guide
       position="5.0011325,11.026048"
       orientation="0,-1"
       id="guide795"
       inkscape:locked="false" />
    <sodipodi:guide
       position="8.0069366,16.230889"
       orientation="1,0"
       id="guide797"
       inkscape:locked="false" />
    <sodipodi:guide
       position="15.98188,17.132503"
       orientation="1,0"
       id="guide828"
       inkscape:locked="false" />
    <sodipodi:guide
       position="8.9513024,16.643262"
       orientation="0,-1"
       id="guide830"
       inkscape:locked="false" />
  </sodipodi:namedview>
  <path
     d="M18.92 6.01C18.72 5.42 18.16 5 17.5 5h-11c-.66 0-1.21.42-1.42 1.01L3 12v8c0 .55.45 1 1 1h1c.55 0 1-.45 1-1v-1h12v1c0 .55.45 1 1 1h1c.55 0 1-.45 1-1v-8zM6.5 16c-.83 0-1.5-.67-1.5-1.5S5.67 13 6.5 13s1.5.67 1.5 1.5S7.33 16 6.5 16m11 0c-.83 0-1.5-.67-1.5-1.5s.67-1.5 1.5-1.5 1.5.67 1.5 1.5-.67 1.5-1.5 1.5M5 11l1.5-4.5h11L19 11z"
     id="path618" />
  <ellipse
     style="fill:#000000"
     id="path799"
     cx="9.5281"
     cy="8.8735132"
     rx="1.5136608"
     ry="1.5319932" />
  <ellipse
     style="fill:#000000"
     id="path799-7"
     cx="14.458947"
     cy="8.8792467"
     rx="1.5136608"
     ry="1.5319932" />
</svg>
