<?xml version="1.0" encoding="UTF-8" standalone="no"?>
<svg
   height="24px"
   viewBox="0 0 24 24"
   width="24px"
   fill="#5f6368"
   version="1.1"
   id="svg10"
   sodipodi:docname="directions_carpool.svg"
   inkscape:version="1.2.2 (b0a8486541, 2022-12-01)"
   xmlns:inkscape="http://www.inkscape.org/namespaces/inkscape"
   xmlns:sodipodi="http://sodipodi.sourceforge.net/DTD/sodipodi-0.dtd"
   xmlns="http://www.w3.org/2000/svg"
   xmlns:svg="http://www.w3.org/2000/svg">
  <defs
     id="defs14" />
  <sodipodi:namedview
     id="namedview12"
     pagecolor="#ffffff"
     bordercolor="#000000"
     borderopacity="0.25"
     inkscape:showpageshadow="2"
     inkscape:pageopacity="0.0"
     inkscape:pagecheckerboard="0"
     inkscape:deskcolor="#d1d1d1"
     showgrid="false"
     showguides="true"
     inkscape:zoom="36.791667"
     inkscape:cx="10.654587"
     inkscape:cy="12"
     inkscape:window-width="1876"
     inkscape:window-height="1131"
     inkscape:window-x="0"
     inkscape:window-y="0"
     inkscape:window-maximized="1"
     inkscape:current-layer="svg10">
    <sodipodi:guide
       position="12.475651,13.861835"
       orientation="0,-1"
       id="guide351"
       inkscape:locked="false" />
    <sodipodi:guide
       position="7.5016988,17.096263"
       orientation="1,0"
       id="guide369"
       inkscape:locked="false" />
    <sodipodi:guide
       position="24.685554,15.484251"
       orientation="1,0"
       id="guide371"
       inkscape:locked="false" />
  </sodipodi:namedview>
  <path
     d="M0 0h24v24H0V0z"
     fill="none"
     id="path2" />
  <path
     d="M18.92 6.01C18.72 5.42 18.16 5 17.5 5h-11c-.66 0-1.21.42-1.42 1.01L3 12v8c0 .55.45 1 1 1h1c.55 0 1-.45 1-1v-1h12v1c0 .55.45 1 1 1h1c.55 0 1-.45 1-1v-8l-2.08-5.99zM6.85 7h10.29l1.08 3.11H5.77L6.85 7zM19 17H5v-5h14v5z"
     id="path4" />
  <circle
     cx="7.5"
     cy="14.5"
     r="1.5"
     id="circle6" />
  <circle
     cx="9.0383329"
     cy="8.6213303"
     r="1.5"
     id="circle6-3" />
  <circle
     cx="14.97031"
     cy="8.6335564"
     r="1.5"
     id="circle6-3-6" />
  <circle
     cx="16.5"
     cy="14.5"
     r="1.5"
     id="circle8" />
  <path
     style="fill:#000000;stroke-width:0.0271801"
     d="M 3.7169728,20.943321 C 3.364765,20.833294 3.1025795,20.531071 3.0330518,20.154961 3.0124985,20.043778 3.0033975,18.773589 3.0033975,16.01622 V 12.037894 L 4.0656828,8.9747791 C 4.6932349,7.1652239 5.1631927,5.8510764 5.2140406,5.7636151 5.401151,5.4417747 5.7384821,5.1802408 6.1155153,5.0646987 6.2716254,5.0168586 6.5231421,5.0147225 12,5.0147225 h 5.721404 l 0.190261,0.060015 c 0.373017,0.1176637 0.720558,0.3935588 0.888591,0.7054077 0.03898,0.072336 0.5491,1.5091487 1.133607,3.1929181 l 1.062739,3.0613997 v 3.980041 c 0,2.755108 -0.0091,4.029342 -0.02961,4.140227 -0.06043,0.326913 -0.258985,0.589396 -0.55624,0.735347 l -0.1616,0.07934 -0.687076,0.0085 c -0.771417,0.0095 -0.876176,-0.0062 -1.110376,-0.166875 -0.07278,-0.04993 -0.178071,-0.150919 -0.233972,-0.224414 -0.176896,-0.232572 -0.192192,-0.306105 -0.204477,-0.983006 l -0.01098,-0.604757 H 12 5.9977261 L 5.98675,19.603624 c -0.012285,0.676901 -0.027581,0.750434 -0.204477,0.983006 -0.1241241,0.163191 -0.3185503,0.300472 -0.5032132,0.355311 -0.1853707,0.05505 -1.3868883,0.05611 -1.562087,0.0014 z M 19.012458,14.500566 V 11.98641 H 12 4.9875425 v 2.514156 2.514157 H 12 19.012458 Z M 8.7187067,10.069904 C 8.3347673,9.9864796 7.9206015,9.6754413 7.7419355,9.3363493 7.6106443,9.0871708 7.5605417,8.882042 7.5626908,8.6024915 7.5659342,8.1806085 7.7196685,7.834738 8.0343099,7.5414454 8.2266273,7.362177 8.3265578,7.303405 8.5884174,7.2155588 c 0.194266,-0.065171 0.2468543,-0.071563 0.5028313,-0.061127 0.200114,0.00816 0.3335616,0.029045 0.4448347,0.069624 C 10.21533,7.4717596 10.63668,8.203612 10.493999,8.8878822 10.371544,9.4751505 9.9161227,9.9482058 9.3560385,10.069904 c -0.1461807,0.03176 0.2076525,0.03679 2.6031915,0.03698 2.669225,2.18e-4 2.7663,-0.0015 2.609286,-0.04664 -0.490604,-0.1409757 -0.904807,-0.5628816 -1.031994,-1.0511878 -0.05211,-0.2000494 -0.05312,-0.551215 -0.0021,-0.742763 0.202815,-0.7620067 0.939286,-1.2294107 1.715431,-1.0887046 0.357537,0.064817 0.763872,0.3398101 0.964814,0.6529515 0.542827,0.8459228 0.101468,1.97893 -0.871487,2.2371809 -0.136201,0.03615 -0.01479,0.03984 1.365799,0.04147 0.833408,9.83e-4 1.515288,-0.0065 1.515288,-0.01672 0,-0.01018 -0.241414,-0.7134649 -0.536476,-1.5628543 L 17.151283,6.9852775 H 11.99609 6.8408969 L 6.8004617,7.1007928 C 6.7782222,7.1643262 6.5556826,7.8033975 6.3059293,8.5209513 6.0561763,9.2385051 5.8292605,9.8898075 5.8016725,9.9682899 l -0.05016,0.1426951 1.568185,-0.0022 c 1.3865738,-0.0019 1.5485928,-0.0064 1.3990095,-0.03892 z"
     id="path470" />
  <path
     style="fill:#000000;stroke-width:0.0271801"
     d="M 7.1437385,15.940435 C 6.4410116,15.751063 5.9873092,15.132676 6.0274998,14.419026 6.0612458,13.819813 6.4338092,13.317048 6.9988675,13.10819 7.1785796,13.04176 7.2397303,13.03293 7.5152888,13.0336 c 0.280902,6.82e-4 0.3318474,0.0087 0.5028312,0.07879 0.4786531,0.19632 0.8107271,0.574483 0.9231047,1.051223 0.2187664,0.928075 -0.5040697,1.823089 -1.466706,1.816072 -0.1046433,-7.64e-4 -0.2534944,-0.01843 -0.3307802,-0.03925 z"
     id="path472" />
  <path
     style="fill:#000000;stroke-width:0.0271801"
     d="m 16.1489,15.940517 c -0.388939,-0.09828 -0.768594,-0.395254 -0.952347,-0.744936 -0.423942,-0.806764 -0.05577,-1.756572 0.812507,-2.096085 0.236898,-0.09263 0.70849,-0.09419 0.971887,-0.0032 0.398854,0.137764 0.780186,0.515248 0.916557,0.90731 0.07145,0.205419 0.100474,0.581847 0.05957,0.772591 -0.109646,0.51126 -0.467179,0.933756 -0.941917,1.113061 -0.23853,0.09009 -0.622669,0.112829 -0.866254,0.05128 z"
     id="path474" />
</svg>
