<?xml version="1.0" encoding="UTF-8" standalone="no"?>
<svg
   enable-background="new 0 0 24 24"
   height="24px"
   viewBox="0 0 24 24"
   width="24px"
   fill="#5f6368"
   version="1.1"
   id="svg6974"
   sodipodi:docname="scooter.svg"
   inkscape:version="1.2.2 (b0a8486541, 2022-12-01)"
   xmlns:inkscape="http://www.inkscape.org/namespaces/inkscape"
   xmlns:sodipodi="http://sodipodi.sourceforge.net/DTD/sodipodi-0.dtd"
   xmlns="http://www.w3.org/2000/svg"
   xmlns:svg="http://www.w3.org/2000/svg">
  <defs
     id="defs6978" />
  <sodipodi:namedview
     id="namedview6976"
     pagecolor="#ffffff"
     bordercolor="#000000"
     borderopacity="0.25"
     inkscape:showpageshadow="2"
     inkscape:pageopacity="0.0"
     inkscape:pagecheckerboard="0"
     inkscape:deskcolor="#d1d1d1"
     showgrid="false"
     inkscape:zoom="9.8333333"
     inkscape:cx="12"
     inkscape:cy="12.050847"
     inkscape:window-width="1876"
     inkscape:window-height="1131"
     inkscape:window-x="0"
     inkscape:window-y="0"
     inkscape:window-maximized="1"
     inkscape:current-layer="g6970" />
  <g
     id="g6962">
    <rect
       fill="none"
       height="24"
       width="24"
       id="rect6960" />
  </g>
  <g
     id="g6972">
    <g
       id="g6970">
      <path
         d="M 7.82,18 H 15 v -1 c 0,-2.21 1.79,-4 4,-4 h 0.74 L 17.84,4.56 C 17.63,3.65 16.82,3 15.89,3 H 12 v 2 h 3.89 l 1.4,6.25 c 0,0 -0.01,0 -0.01,0 -2.16,0.65 -3.81,2.48 -4.19,4.75 H 7.82 C 7.34,14.66 5.96,13.76 4.4,14.06 3.22,14.29 2.27,15.26 2.05,16.44 1.7,18.34 3.16,20 5,20 6.3,20 7.4,19.16 7.82,18 Z M 5,18 c -0.55,0 -1,-0.45 -1,-1 0,-0.55 0.45,-1 1,-1 0.55,0 1,0.45 1,1 0,0.55 -0.45,1 -1,1 z"
         id="path6964"
         style="fill:#000000;fill-opacity:1" />
      <path
         d="m 19,14 c -1.66,0 -3,1.34 -3,3 0,1.66 1.34,3 3,3 1.66,0 3,-1.34 3,-3 0,-1.66 -1.34,-3 -3,-3 z m 0,4 c -0.55,0 -1,-0.45 -1,-1 0,-0.55 0.45,-1 1,-1 0.55,0 1,0.45 1,1 0,0.55 -0.45,1 -1,1 z"
         id="path6966"
         style="fill:#000000;fill-opacity:1" />
    </g>
  </g>
</svg>
