<?xml version="1.0" encoding="UTF-8"?>
<svg id="Calque_1" data-name="Calque 1" xmlns="http://www.w3.org/2000/svg" viewBox="0 0 270.15 55.79">
  <defs>
    <style>
      .cls-1 {
        fill: #4d303f;
      }
    </style>
  </defs>
  <g>
    <path class="cls-1" d="M114.08,26.96v13.75h-5.87v-12.93c0-1.41-.45-2.53-1.33-3.33-.86-.78-1.93-1.18-3.18-1.18-.86,0-1.64.18-2.33.54-.69.37-1.25.89-1.66,1.55-.41.66-.62,1.48-.62,2.42v12.93h-5.87v-12.93c0-1.41-.45-2.53-1.33-3.33-.86-.78-1.93-1.18-3.18-1.18-.85,0-1.64.18-2.32.54-.7.37-1.26.89-1.66,1.55-.41.66-.62,1.48-.62,2.42v12.93h-5.87v-21.92h5.87v2.32l1.95-1.33c.25-.17.51-.33.79-.47,1.26-.66,2.72-1,4.32-1,1.5,0,2.86.34,4.04,1.01.71.41,1.35.92,1.88,1.51l.89.98.93-.93c.58-.58,1.25-1.08,1.99-1.48,1.34-.72,2.89-1.09,4.58-1.09s3.16.35,4.44,1.04c1.27.69,2.29,1.68,3.04,2.95.74,1.28,1.12,2.84,1.12,4.66Z"/>
    <path class="cls-1" d="M141.32,23.85c-1.05-1.72-2.5-3.1-4.3-4.09-1.81-.99-3.89-1.5-6.19-1.5s-4.39.51-6.19,1.52c-1.81,1.01-3.25,2.39-4.3,4.1-1.05,1.7-1.58,3.66-1.58,5.82s.53,4.15,1.58,5.88c1.05,1.74,2.5,3.14,4.32,4.14,1.82,1.01,3.9,1.52,6.17,1.52s4.38-.51,6.18-1.52c1.81-1,3.25-2.4,4.31-4.14,1.04-1.73,1.57-3.71,1.57-5.88s-.53-4.13-1.57-5.85ZM136.15,32.96h-.01c-.49.98-1.22,1.75-2.14,2.28-.92.53-1.98.8-3.17.8s-2.21-.27-3.13-.8c-.92-.53-1.65-1.3-2.16-2.27-.51-.95-.76-2.04-.76-3.22s.25-2.3.76-3.24c.51-.96,1.24-1.71,2.16-2.25.92-.53,1.97-.8,3.13-.8s2.25.27,3.15.8c.9.54,1.62,1.28,2.13,2.21.51.93.77,2.02.77,3.23s-.25,2.31-.73,3.26Z"/>
    <path class="cls-1" d="M170.09,23.84c-.91-1.7-2.19-3.06-3.78-4.05-1.59-.98-3.45-1.48-5.51-1.48-1.46,0-2.81.29-4.02.85-.33.15-.64.32-.94.5l-1.91,1.19V7.23h-5.87v33.48h5.77v-2.33l1.95,1.31c.32.22.66.42,1.02.59,1.21.61,2.55.91,4,.91,2.06,0,3.92-.49,5.51-1.47,1.59-.99,2.87-2.35,3.78-4.06s1.38-3.7,1.38-5.91-.47-4.2-1.38-5.91ZM164.74,32.95c-.52.95-1.23,1.71-2.13,2.26-.9.55-1.95.83-3.11.83s-2.21-.27-3.11-.8c-.9-.53-1.62-1.29-2.13-2.24-.51-.94-.76-2.03-.76-3.25s.24-2.29.73-3.23h0c.51-.98,1.21-1.72,2.15-2.26.91-.53,1.96-.8,3.12-.8s2.2.27,3.1.8c.9.54,1.62,1.29,2.13,2.24.51.95.77,2.04.77,3.25s-.26,2.26-.76,3.2Z"/>
    <rect class="cls-1" x="176.73" y="18.79" width="5.87" height="21.92"/>
    <path class="cls-1" d="M182.89,10.77c0,.93-.3,1.7-.91,2.35-.59.64-1.35.94-2.29.94s-1.72-.31-2.33-.95c-.62-.64-.92-1.41-.92-2.34s.3-1.74.91-2.37c.62-.63,1.38-.93,2.34-.93s1.7.3,2.3.92c.6.64.9,1.41.9,2.38Z"/>
    <rect class="cls-1" x="189.3" y="7.23" width="5.87" height="33.48"/>
    <polygon class="cls-1" points="222.93 18.79 209.4 50.59 203.51 50.59 208.48 39.87 199.84 18.79 206.13 18.79 211.33 34.65 216.65 18.79 222.93 18.79"/>
    <path class="cls-1" d="M242.6,31.36c.47.8.71,1.88.71,3.21,0,2.06-.75,3.65-2.29,4.86-1.57,1.23-3.76,1.86-6.5,1.86-1.31,0-2.61-.17-3.88-.5-1.26-.34-2.45-.83-3.53-1.45-.84-.48-1.59-1.03-2.23-1.64l3.14-3.18c.72.65,1.53,1.18,2.44,1.58,1.15.51,2.42.76,3.77.76,1.01,0,1.78-.15,2.36-.47.7-.39,1.09-1,1.09-1.72,0-.6-.21-1.43-1.24-1.99-.6-.33-1.38-.62-2.3-.88-.86-.24-1.77-.5-2.73-.79-.9-.27-1.77-.65-2.58-1.13-.75-.45-1.38-1.08-1.86-1.89-.47-.79-.71-1.84-.71-3.1,0-1.35.34-2.53,1.02-3.5.69-.99,1.69-1.79,2.98-2.38,1.3-.59,2.87-.89,4.65-.89,1.88,0,3.64.33,5.23.98,1.34.55,2.48,1.33,3.39,2.33l-3.16,3.19c-.68-.65-1.43-1.14-2.23-1.45-1-.38-1.99-.58-2.94-.58s-1.72.15-2.26.47c-.64.37-1,.97-1,1.68,0,.44.16,1.26,1.22,1.82.59.32,1.36.6,2.28.83.85.23,1.76.5,2.7.81.9.3,1.77.71,2.58,1.22.76.48,1.4,1.14,1.88,1.94Z"/>
    <path class="cls-1" d="M268.73,23.52c-.94-1.64-2.24-2.94-3.88-3.86-1.65-.93-3.58-1.4-5.75-1.4s-4.27.51-6.05,1.5c-1.77.99-3.19,2.37-4.23,4.09-1.03,1.72-1.55,3.71-1.55,5.9s.53,4.19,1.58,5.93c1.05,1.74,2.51,3.11,4.36,4.08,1.85.98,4.01,1.48,6.42,1.48,1.85,0,3.57-.32,5.11-.95,1.3-.54,2.46-1.32,3.44-2.32l-3.01-3.01c-.64.61-1.37,1.09-2.16,1.43-1.02.44-2.18.67-3.43.67-1.38,0-2.6-.31-3.63-.9-1.04-.6-1.85-1.47-2.41-2.57-.07-.13-.13-.26-.19-.4l-.74-1.74,12.4-.03.07-.08.09.08h4.78c.06-.36.1-.67.13-.95.05-.44.07-.86.07-1.25,0-2.13-.48-4.05-1.42-5.7ZM252.6,27.89l.75-1.75c.04-.09.09-.19.13-.28.53-1.09,1.29-1.95,2.26-2.55.96-.6,2.11-.91,3.4-.91s2.3.27,3.17.81c.88.55,1.56,1.34,2,2.36.09.21.18.43.25.66l.52,1.63-12.48.03Z"/>
  </g>
  <g>
    <path class="cls-1" d="M28.21,26.8c-.35-.33-.68-.59-.88-.72-.08.13-.15.26-.22.39-.07.12-.14.24-.18.37-.1.2-.19.41-.25.58-.3.78-.48,1.53-.51,2.28-.02.52.02,1.05.11,1.58l.08.39c.06.17.11.35.17.51.08.23.17.42.26.58.04.09.13.24.24.4.16.22.36.47.59.61.33.22.62.21.77.16.04,0,.08-.01.12-.03.04,0,.07-.02.11-.04.43-.19.82-.68,1.06-1.32.13-.31.2-.64.23-1.02.12-1.47-.12-2.5-.86-3.66-.18-.29-.5-.72-.86-1.06Z"/>
    <path class="cls-1" d="M45,0H10.79C4.83,0,0,4.83,0,10.79v34.21c0,5.96,4.83,10.79,10.79,10.79h34.21c5.96,0,10.79-4.83,10.79-10.79V10.79c0-5.96-4.83-10.79-10.79-10.79ZM43.61,34.5l-.31.58-1.95-1.25-2.15-1.37.25-.5c.17-.4.31-.8.42-1.18,1.45-4.95-1.62-8.08-4.24-8.74-1.62-.42-3.33.2-4.31.83,0,0,1.6,1.13,2.64,3.84.37.93.65,2.04.8,3.36.09.89.07,1.74-.07,2.56-.04.35-.12.7-.22,1.04-.22.74-.51,1.39-.88,2.01-.31.49-.65.94-1.03,1.32-.3.31-.63.58-.98.82-.33.22-.69.41-1.06.55-.16.06-.32.12-.51.17-.61.19-1.23.27-1.85.25-1.1-.03-2.17-.35-3.11-.93-.62-.39-1.19-.89-1.69-1.49-.26-.33-.5-.69-.72-1.08-.63-1.13-1.05-2.34-1.22-3.61v-.1c-.09-.5-.12-1.01-.12-1.52-.02-1.35.21-2.72.7-4.09.12-.33.24-.63.39-.95,0-.03.03-.05.04-.09l.46-1.01c-1-.36-2.48-.27-3.45.24,0,0,0,0-.02,0-1.58.8-3.01,2.35-3.68,4.94-.04.17-.08.33-.12.51-.03.14-.06.28-.08.43l-.06.55h-4.86s.06-.66.06-.66c.34-4.9,3.28-8.94,7.76-10.6,1.01-.37,2.46-.63,3.56-.66,1.25-.04,2.67.07,4.17.64.11.04.22.09.33.14.11.04.23.09.33.14.24-.17,1.14-1.04,3.07-1.74,4.95-1.79,8.11-.44,10.29,1.06.9.62,1.99,1.62,2.63,2.48,2.87,3.83,3.17,8.81.8,13.12Z"/>
  </g>
</svg>